<svg width="61" height="31" viewBox="0 0 61 31" fill="none" xmlns="http://www.w3.org/2000/svg">
<path d="M3.536 28.912C2.68267 28.912 1.92533 28.5387 1.264 27.792C0.602667 27.0667 0.218667 25.9253 0.112 24.368L2.48 23.216L3.216 23.664C3.216 24.4533 3.36533 25.104 3.664 25.616C3.984 26.128 4.35733 26.384 4.784 26.384C5.27467 26.384 5.78667 25.9893 6.32 25.2C6.85333 24.4107 7.30133 23.0987 7.664 21.264C8.048 19.408 8.24 16.912 8.24 13.776C8.24 13.136 8.21867 12.2827 8.176 11.216C8.15467 10.1493 8.112 9.02933 8.048 7.856C8.00533 6.68267 7.94133 5.616 7.856 4.656C7.664 4.67733 7.46133 4.69867 7.248 4.72C7.056 4.72 6.864 4.72 6.672 4.72C5.88267 4.72 5.08267 4.624 4.272 4.432L3.92 3.6L4.752 0.848C5.30667 1.25333 5.92533 1.54133 6.608 1.712C7.29067 1.86133 8.02667 1.936 8.816 1.936C9.75467 1.936 10.6613 1.84 11.536 1.648C12.432 1.456 13.1787 1.264 13.776 1.072C13.8613 1.072 13.904 1.168 13.904 1.36C13.904 1.50933 13.8613 1.72267 13.776 2C13.6907 2.256 13.5733 2.448 13.424 2.576C13.0827 2.78933 12.7413 2.992 12.4 3.184C12.0587 3.35467 11.7173 3.51467 11.376 3.664C11.3333 4.70933 11.28 5.89333 11.216 7.216C11.152 8.51733 11.0667 9.89333 10.96 11.344C10.8533 12.7733 10.7253 14.192 10.576 15.6C10.448 16.9867 10.288 18.288 10.096 19.504C9.92533 20.72 9.72267 21.7547 9.488 22.608C9.12533 23.952 8.61333 25.0933 7.952 26.032C7.29067 26.9707 6.576 27.6853 5.808 28.176C5.04 28.6667 4.28267 28.912 3.536 28.912ZM27.7748 22.896C27.6254 22.896 27.4228 22.8533 27.1668 22.768C26.9108 22.6827 26.7188 22.576 26.5908 22.448C26.2068 21.5733 25.8761 20.5067 25.5988 19.248C25.3428 17.968 25.1294 16.7093 24.9588 15.472C24.3614 16.88 23.6788 18.128 22.9108 19.216C22.1428 20.304 21.3534 21.1573 20.5428 21.776C19.7534 22.3947 18.9854 22.704 18.2388 22.704C17.2788 22.704 16.5748 22.3627 16.1268 21.68C15.7001 20.9973 15.4868 20.1333 15.4868 19.088C15.4868 17.6373 15.7641 16.304 16.3188 15.088C16.8734 13.8507 17.6094 12.7413 18.5268 11.76C19.4654 10.7573 20.4788 9.89333 21.5668 9.168C22.6761 8.42133 23.7748 7.81333 24.8628 7.344L27.4548 6.224L28.2228 6.672C27.9028 7.61067 27.6468 8.74133 27.4548 10.064C27.2628 11.3867 27.1668 12.6453 27.1668 13.84C27.1668 14.416 27.1881 15.1307 27.2308 15.984C27.2948 16.8373 27.3694 17.7227 27.4548 18.64C27.5401 19.536 27.6254 20.368 27.7108 21.136C27.8174 21.8827 27.9134 22.4373 27.9988 22.8C27.9988 22.864 27.9241 22.896 27.7748 22.896ZM20.0948 18.864C20.7348 18.864 21.4814 18.3413 22.3348 17.296C23.1881 16.2507 23.9561 14.672 24.6388 12.56C24.6174 12.3253 24.6068 12.112 24.6068 11.92C24.6068 11.7067 24.6068 11.5147 24.6068 11.344C24.6068 10.8107 24.6068 10.352 24.6068 9.968C24.6068 9.584 24.6174 9.24267 24.6388 8.944C23.6574 9.49867 22.6974 10.1387 21.7588 10.864C20.8201 11.568 20.0414 12.3893 19.4227 13.328C18.8041 14.2453 18.4948 15.3013 18.4948 16.496C18.4948 17.1787 18.6014 17.744 18.8148 18.192C19.0494 18.64 19.4761 18.864 20.0948 18.864ZM31.478 30.8C31.3073 30.8 31.222 30.7467 31.222 30.64C31.7553 28.1867 32.1287 25.8613 32.342 23.664C32.5553 21.488 32.662 19.4933 32.662 17.68C32.662 16.1867 32.598 14.7573 32.47 13.392C32.342 12.0267 32.182 10.7893 31.99 9.68C31.798 8.57067 31.606 7.68533 31.414 7.024L32.214 6.48L34.774 7.76C35.0087 9.40267 35.1047 11.1627 35.062 13.04L35.318 13.104C35.9153 11.76 36.5767 10.576 37.302 9.552C38.0487 8.528 38.8167 7.728 39.606 7.152C40.3953 6.576 41.1527 6.288 41.878 6.288C42.838 6.288 43.5313 6.62933 43.958 7.312C44.406 7.97333 44.63 8.83733 44.63 9.904C44.63 10.928 44.438 12.048 44.054 13.264C43.6913 14.4587 43.1047 15.6533 42.294 16.848C41.4833 18.0427 40.4167 19.152 39.094 20.176C37.7713 21.2 36.1607 22.032 34.262 22.672C34.0487 24.1227 33.814 25.4987 33.558 26.8C33.302 28.1013 33.0567 29.2533 32.822 30.256C32.6727 30.4053 32.4487 30.5333 32.15 30.64C31.8727 30.7467 31.6487 30.8 31.478 30.8ZM34.518 20.88C36.2247 20.2827 37.59 19.4933 38.614 18.512C39.6593 17.5093 40.4167 16.4747 40.886 15.408C41.3767 14.32 41.622 13.36 41.622 12.528C41.622 11.824 41.5047 11.248 41.27 10.8C41.0567 10.352 40.6407 10.128 40.022 10.128C39.638 10.128 39.1793 10.32 38.646 10.704C38.134 11.088 37.6007 11.7067 37.046 12.56C36.5127 13.392 36.0113 14.5013 35.542 15.888C35.094 17.2533 34.7527 18.9173 34.518 20.88ZM51.737 23.056C51.5877 23.056 51.513 23.024 51.513 22.96C51.7903 21.3173 51.9717 19.728 52.057 18.192C52.1637 16.656 52.217 15.184 52.217 13.776C52.217 13.136 52.1957 12.2827 52.153 11.216C52.1317 10.1493 52.089 9.04 52.025 7.888C51.9823 6.71467 51.9183 5.648 51.833 4.688C51.5557 4.70933 51.2783 4.72 51.001 4.72C50.745 4.72 50.4783 4.72 50.201 4.72C49.0703 4.72 47.929 4.624 46.777 4.432L46.265 3.6L47.481 0.848C48.249 1.25333 49.1237 1.54133 50.105 1.712C51.0863 1.86133 52.153 1.936 53.305 1.936C54.6703 1.936 55.9823 1.84 57.241 1.648C58.4997 1.456 59.513 1.264 60.281 1.072C60.3663 1.072 60.409 1.168 60.409 1.36C60.409 1.50933 60.3663 1.72267 60.281 2C60.1957 2.256 60.0783 2.448 59.929 2.576C59.097 2.91733 58.2757 3.22667 57.465 3.504C56.6543 3.78133 55.8437 4.016 55.033 4.208C54.969 5.488 54.8837 6.96 54.777 8.624C54.6917 10.2667 54.5637 11.9627 54.393 13.712C54.2437 15.44 54.0623 17.0827 53.849 18.64C53.6357 20.1973 53.3903 21.52 53.113 22.608C52.9637 22.7573 52.7397 22.864 52.441 22.928C52.1423 23.0133 51.9077 23.056 51.737 23.056Z" fill="black"/>
</svg>
